# xmcd
# Track frame offsets:
# 150
# 12300
# 26440
# 38872
# 53442
# 68310
# 83515
# 96633
# 109398
# 123847
# 138637
# 150337
# 163322
# 177509
# 190207
# 202879
# 215619
#
# Disc length: 3075 seconds
# Revision: 0
# Processed by: cddbd v1.4PL0 Copyright (c) Steve Scherf et al.
# Submitted via: VisiTrax 2.9.5.180 - For more info visit www.synapsa.com
#
DISCID=e10c0111
DTITLE=Ragnar I Vik - The silence of a falling star
DYEAR=1999
DGENRE=
TTITLE0=A mansion on the hill
TTITLE1=There's a tear in my beer
TTITLE2=Why should we try anymore
TTITLE3=our cheatin' heart
TTITLE4=Jambalya
TTITLE5=I'm so lonesome I could cry
TTITLE6=You win again
TTITLE7=Cold, cold heart
TTITLE8=I can't escape from you
TTITLE9=Hey, good lookin'
TTITLE10=Alone and forsaken
TTITLE11=You broke your own heart
TTITLE12=Weary blues from waitin'
TTITLE13=The log train
TTITLE14=Did you miss me
TTITLE15=Eina á heysti (Alone and forsaken)
TTITLE16=So eina her í nátt (I'm so lonesome I could cry)
EXTD=
EXTT0=
EXTT1=
EXTT2=
EXTT3=
EXTT4=
EXTT5=
EXTT6=
EXTT7=
EXTT8=
EXTT9=
EXTT10=
EXTT11=
EXTT12=
EXTT13=
EXTT14=
EXTT15=
EXTT16=
PLAYORDER=
